<svg width="20" height="20" viewBox="0 0 20 20" fill="none" xmlns="http://www.w3.org/2000/svg">
<path d="M2.57814 1.875C2.06014 1.875 1.56335 2.08078 1.19707 2.44706C0.830788 2.81334 0.625013 3.31012 0.625013 3.82813V8.75H0.626263C0.625335 8.77603 0.624918 8.80208 0.625013 8.82812V17.4544C0.625013 17.9724 0.830788 18.4692 1.19707 18.8354C1.56335 19.2017 2.06014 19.4075 2.57814 19.4075H17.4219C17.9399 19.4075 18.4367 19.2017 18.803 18.8354C19.1692 18.4692 19.375 17.9724 19.375 17.4544V8.82812C19.375 8.80188 19.375 8.77563 19.3731 8.75H19.375V6.33563C19.375 5.81762 19.1692 5.32084 18.803 4.95456C18.4367 4.58828 17.9399 4.3825 17.4219 4.3825H10.5544C10.3681 4.3825 10.1894 4.30875 10.0575 4.17688L8.50939 2.63C8.27012 2.39057 7.986 2.20065 7.67329 2.0711C7.36057 1.94155 7.02538 1.87492 6.68689 1.875H2.57814ZM18.125 7.00562C17.9007 6.91908 17.6623 6.87479 17.4219 6.875H2.57814C2.3377 6.87468 2.09929 6.91897 1.87501 7.00562V3.82813C1.87501 3.44 2.19001 3.125 2.57814 3.125H6.68689C7.03939 3.125 7.37689 3.265 7.62564 3.51375L9.17376 5.06125C9.54001 5.42687 10.0363 5.6325 10.555 5.6325H17.4219C17.8106 5.6325 18.125 5.9475 18.125 6.33563V7.00562ZM1.87501 8.82812C1.87501 8.44 2.19001 8.125 2.57814 8.125H17.4219C17.8106 8.125 18.125 8.44 18.125 8.82812V17.4544C18.125 17.8431 17.8106 18.1575 17.4219 18.1575H2.57814C2.39166 18.1575 2.21282 18.0834 2.08095 17.9516C1.94909 17.8197 1.87501 17.6409 1.87501 17.4544V8.82812Z" fill="#90A0B7"/>
</svg>
