<svg width="20" height="20" viewBox="0 0 20 20" fill="none" xmlns="http://www.w3.org/2000/svg">
<g clip-path="url(#clip0_118_649)">
<path d="M17.7778 15.5556H2.2222V11.8444C1.80844 11.6463 1.43244 11.3774 1.11108 11.05V15.5556C1.11108 15.8502 1.22815 16.1329 1.43652 16.3412C1.64489 16.5496 1.92751 16.6667 2.2222 16.6667H17.7778C18.0724 16.6667 18.3551 16.5496 18.5634 16.3412C18.7718 16.1329 18.8889 15.8502 18.8889 15.5556V11.05C18.5699 11.3787 18.1933 11.6461 17.7778 11.8389V15.5556Z" fill="#90A0B7"/>
<path d="M13.8889 12.4444C14.0363 12.4444 14.1776 12.3859 14.2818 12.2817C14.386 12.1775 14.4445 12.0362 14.4445 11.8889V8.85556H13.3334V10H7.77783V11.1111H13.3334V11.8889C13.3334 12.0362 13.3919 12.1775 13.4961 12.2817C13.6003 12.3859 13.7416 12.4444 13.8889 12.4444Z" fill="#90A0B7"/>
<path d="M18.3333 3.33334H13.3333V2.43334C13.3275 2.07773 13.1809 1.73893 12.9258 1.49111C12.6707 1.24329 12.3278 1.10666 11.9722 1.11111H8.02775C7.67212 1.10666 7.32922 1.24329 7.07411 1.49111C6.81901 1.73893 6.67249 2.07773 6.66664 2.43334V3.33334H1.66664C1.5193 3.33334 1.37799 3.39187 1.2738 3.49605C1.16962 3.60024 1.11108 3.74155 1.11108 3.88889V8.33334C1.11108 9.07005 1.40374 9.77659 1.92468 10.2975C2.44561 10.8185 3.15215 11.1111 3.88886 11.1111H5.55553V11.8889C5.55553 12.0362 5.61406 12.1775 5.71825 12.2817C5.82243 12.3859 5.96374 12.4444 6.11108 12.4444C6.25843 12.4444 6.39973 12.3859 6.50392 12.2817C6.60811 12.1775 6.66664 12.0362 6.66664 11.8889V8.85556H5.55553V10H3.88886C3.44683 10 3.02291 9.82441 2.71035 9.51185C2.39779 9.19929 2.2222 8.77536 2.2222 8.33334V4.44445H17.7778V8.33334C17.7778 8.77536 17.6022 9.19929 17.2896 9.51185C16.977 9.82441 16.5531 10 16.1111 10H15.5555V11.1111H16.1111C16.8478 11.1111 17.5543 10.8185 18.0753 10.2975C18.5962 9.77659 18.8889 9.07005 18.8889 8.33334V3.88889C18.8889 3.74155 18.8303 3.60024 18.7261 3.49605C18.622 3.39187 18.4806 3.33334 18.3333 3.33334ZM12.2222 3.33334H7.77775V2.46111C7.78061 2.39675 7.80821 2.33598 7.85479 2.29148C7.90137 2.24697 7.96333 2.22216 8.02775 2.22222H11.9778C12.0091 2.22149 12.0403 2.22694 12.0696 2.23827C12.0989 2.24959 12.1256 2.26658 12.1483 2.28825C12.171 2.30991 12.1892 2.33584 12.2019 2.36455C12.2146 2.39326 12.2215 2.42418 12.2222 2.45556V3.33334Z" fill="#90A0B7"/>
</g>
<defs>
<clipPath id="clip0_118_649">
<rect width="20" height="20" fill="white"/>
</clipPath>
</defs>
</svg>
