<svg width="20" height="20" viewBox="0 0 20 20" fill="none" xmlns="http://www.w3.org/2000/svg">
<g clip-path="url(#clip0_118_638)">
<path d="M19.8175 0.182496C19.904 0.269162 19.9632 0.379339 19.9876 0.499343C20.0121 0.619347 20.0007 0.743888 19.955 0.857496L12.6812 19.0412C12.6171 19.2014 12.5101 19.3407 12.3719 19.444C12.2337 19.5472 12.0697 19.6103 11.898 19.6263C11.7262 19.6423 11.5534 19.6107 11.3985 19.5348C11.2436 19.4589 11.1126 19.3418 11.02 19.1962L7.04748 12.9525L0.803726 8.98C0.657873 8.88748 0.540415 8.75646 0.464313 8.60141C0.388211 8.44635 0.356423 8.27329 0.372457 8.10131C0.388491 7.92934 0.451723 7.76513 0.555177 7.62682C0.65863 7.4885 0.798283 7.38146 0.958726 7.3175L19.1425 0.0462465C19.2561 0.000511799 19.3806 -0.0108379 19.5006 0.0136074C19.6206 0.0380526 19.7308 0.0972154 19.8175 0.183746V0.182496ZM8.29498 12.5875L11.7462 18.01L17.6625 3.22L8.29498 12.5875ZM16.7787 2.33625L1.98873 8.2525L7.41247 11.7025L16.78 2.33625H16.7787Z" fill="#90A0B7"/>
</g>
<defs>
<clipPath id="clip0_118_638">
<rect width="20" height="20" fill="white"/>
</clipPath>
</defs>
</svg>
