<svg width="20" height="20" viewBox="0 0 20 20" fill="none" xmlns="http://www.w3.org/2000/svg">
<path d="M0 5.625C0 5.12772 0.197544 4.65081 0.549175 4.29917C0.900805 3.94754 1.37772 3.75 1.875 3.75H18.125C18.6223 3.75 19.0992 3.94754 19.4508 4.29917C19.8025 4.65081 20 5.12772 20 5.625V7.5C20 7.66576 19.9342 7.82473 19.8169 7.94194C19.6997 8.05915 19.5408 8.125 19.375 8.125C18.8777 8.125 18.4008 8.32254 18.0492 8.67417C17.6975 9.02581 17.5 9.50272 17.5 10C17.5 10.4973 17.6975 10.9742 18.0492 11.3258C18.4008 11.6775 18.8777 11.875 19.375 11.875C19.5408 11.875 19.6997 11.9408 19.8169 12.0581C19.9342 12.1753 20 12.3342 20 12.5V14.375C20 14.8723 19.8025 15.3492 19.4508 15.7008C19.0992 16.0525 18.6223 16.25 18.125 16.25H1.875C1.37772 16.25 0.900805 16.0525 0.549175 15.7008C0.197544 15.3492 0 14.8723 0 14.375L0 12.5C0 12.3342 0.065848 12.1753 0.183058 12.0581C0.300269 11.9408 0.45924 11.875 0.625 11.875C1.12228 11.875 1.59919 11.6775 1.95083 11.3258C2.30246 10.9742 2.5 10.4973 2.5 10C2.5 9.50272 2.30246 9.02581 1.95083 8.67417C1.59919 8.32254 1.12228 8.125 0.625 8.125C0.45924 8.125 0.300269 8.05915 0.183058 7.94194C0.065848 7.82473 0 7.66576 0 7.5V5.625ZM1.875 5C1.70924 5 1.55027 5.06585 1.43306 5.18306C1.31585 5.30027 1.25 5.45924 1.25 5.625V6.9375C1.95643 7.08095 2.59155 7.46421 3.04774 8.02234C3.50393 8.58047 3.75313 9.27915 3.75313 10C3.75313 10.7208 3.50393 11.4195 3.04774 11.9777C2.59155 12.5358 1.95643 12.9191 1.25 13.0625V14.375C1.25 14.5408 1.31585 14.6997 1.43306 14.8169C1.55027 14.9342 1.70924 15 1.875 15H18.125C18.2908 15 18.4497 14.9342 18.5669 14.8169C18.6842 14.6997 18.75 14.5408 18.75 14.375V13.0625C18.0436 12.9191 17.4085 12.5358 16.9523 11.9777C16.4961 11.4195 16.2469 10.7208 16.2469 10C16.2469 9.27915 16.4961 8.58047 16.9523 8.02234C17.4085 7.46421 18.0436 7.08095 18.75 6.9375V5.625C18.75 5.45924 18.6842 5.30027 18.5669 5.18306C18.4497 5.06585 18.2908 5 18.125 5H1.875Z" fill="#90A0B7"/>
</svg>
